<?xml version="1.0" standalone="no"?><svg xmlns="http://www.w3.org/2000/svg" viewBox="0 0 1440 320"><path fill="#0099ff" fill-opacity="1" d="M0,64L20,101.3C40,139,80,213,120,245.3C160,277,200,267,240,218.7C280,171,320,85,360,85.3C400,85,440,171,480,176C520,181,560,107,600,106.7C640,107,680,181,720,218.7C760,256,800,256,840,218.7C880,181,920,107,960,96C1000,85,1040,139,1080,149.3C1120,160,1160,128,1200,122.7C1240,117,1280,139,1320,154.7C1360,171,1400,181,1420,186.7L1440,192L1440,320L1420,320C1400,320,1360,320,1320,320C1280,320,1240,320,1200,320C1160,320,1120,320,1080,320C1040,320,1000,320,960,320C920,320,880,320,840,320C800,320,760,320,720,320C680,320,640,320,600,320C560,320,520,320,480,320C440,320,400,320,360,320C320,320,280,320,240,320C200,320,160,320,120,320C80,320,40,320,20,320L0,320Z"></path></svg>